<?xml version="1.0" encoding="iso-8859-1"?>
<!-- Generator: Adobe Illustrator 18.1.1, SVG Export Plug-In . SVG Version: 6.00 Build 0)  -->
<svg version="1.1" id="Capa_1" xmlns="http://www.w3.org/2000/svg" xmlns:xlink="http://www.w3.org/1999/xlink" x="0px" y="0px"
	 viewBox="0 0 469.508 469.508" style="enable-background:new 0 0 469.508 469.508;" xml:space="preserve">
<g>
	<g>
		<path style="fill:#010002;" d="M457.403,213.147c-20.874-21.313-66.719-22.256-222.528-22.256
			c-115.214,0-234.347,0-234.347,83.212c0,3.235,0.423,6.413,1.032,9.551c-0.374,2.065-0.715,4.154-0.943,6.332
			c-3.219,31.059,6.153,59.038,27.881,83.139c57.006,63.216,188.583,85.651,283.956,85.651
			c101.095,0,156.768-59.347,156.768-167.115c0-4.3,0.081-8.316,0.163-12.071c0.114-5.527,0.179-10.803-0.024-15.875
			c0.008-0.536,0.008-1.162,0.024-1.683C469.758,242.751,470.1,226.104,457.403,213.147z M434.18,235.899
			c3.138,3.211,2.934,13.03,2.682,25.475c-0.016,0.699-0.016,1.544-0.033,2.26c-0.065,3.333-0.138,6.739-0.138,10.47
			c0,35.278-4.357,68.109-42.171,85.813c10.925-25.386,21.029-62.403,22.045-113.012c0.106-5.357,0.13-10.827,0.024-16.493
			c-0.008-0.366,0.008-0.699,0-1.073c6.617,1.26,11.705,2.788,14.924,4.65C432.57,234.59,433.521,235.216,434.18,235.899z
			 M98.437,229.867c-0.024,0.496-0.089,1.024-0.138,1.536c-0.536,5.349-2.569,11.575-5.121,17.428
			c-2.991,6.844-6.568,13.087-8.901,16.542c-8.82,12.957-5.503,30.62,7.438,39.472c4.91,3.373,10.518,4.983,16.062,4.983
			c9.063,0,17.98-4.324,23.492-12.364c2.13-3.105,18.436-27.653,22.971-55.079c0.74-4.471,1.195-9.006,1.195-13.55
			c0-0.959-0.187-1.861-0.285-2.796c-0.041-0.439-0.073-0.886-0.13-1.317c24.304-1.089,51.243-1.317,79.863-1.317
			c49.032,0,91.82,0.008,125.245,1.162c-0.073,0.431-0.049,0.886-0.106,1.333c-0.146,1.276-0.325,2.544-0.301,3.869
			c0.098,4.276,0.049,8.307,0,12.355c-0.919,85.017-32.311,121.295-33.514,122.636c-2.495,2.593-4.341,5.568-5.657,8.706
			c-2.658,0.057-5.316,0.106-8.096,0.106c-6.544,0-13.176-0.179-19.85-0.471c13.672-24.239,26.198-57.794,32.124-103.615
			c1.52-11.762-4.381-22.752-14.054-28.312c-3.146-1.805-6.682-3.056-10.502-3.552c-6.227-0.829-12.234,0.536-17.379,3.398
			c-7.625,4.243-13.282,11.851-14.485,21.159c-7.438,57.518-26.54,88.699-40.147,104.216c-10.917-1.764-21.736-3.837-32.376-6.137
			c19.305-24.873,36.652-57.087,38.383-93.958c0.496-10.6-4.95-20.013-13.323-25.304c-4.024-2.536-8.665-4.211-13.762-4.446
			c-6.227-0.309-12.063,1.52-16.932,4.739c-7.316,4.845-12.38,12.924-12.827,22.345c-1.333,28.361-20.541,57.502-42.545,80.026
			c-51.047-17.062-89.983-39.147-99.445-60.054c-1.447-3.203-2.284-6.381-2.284-9.51c0-11.242,5.064-19.988,14.258-26.816
			C58.574,238.906,76.108,233.419,98.437,229.867z"/>
		<path style="fill:#010002;" d="M192.168,140.924c12.876-16.607,18.387-32.539,14.127-53.445
			c-4.211-20.647-18.501-33.79-3.455-53.486c12.737-16.672-15.526-32.831-28.076-16.412c-11.315,14.81-14.355,30.726-10.201,48.771
			c4.202,18.257,18.395,33.799,4.617,51.576C156.499,134.283,179.333,157.482,192.168,140.924z"/>
		<path style="fill:#010002;" d="M265.325,140.924c12.876-16.607,18.387-32.539,14.127-53.445
			c-4.211-20.647-18.501-33.79-3.455-53.486c12.737-16.672-15.526-32.831-28.076-16.412c-11.315,14.81-14.355,30.726-10.201,48.771
			c4.202,18.257,18.395,33.799,4.617,51.576C229.657,134.283,252.49,157.482,265.325,140.924z"/>
		<path style="fill:#010002;" d="M330.353,140.924c12.876-16.607,18.387-32.539,14.127-53.445
			c-4.211-20.647-18.501-33.79-3.455-53.486c12.737-16.672-15.526-32.831-28.076-16.412c-11.315,14.81-14.355,30.726-10.201,48.771
			c4.202,18.257,18.395,33.799,4.617,51.576C294.685,134.283,317.518,157.482,330.353,140.924z"/>
	</g>
</g>
<g>
</g>
<g>
</g>
<g>
</g>
<g>
</g>
<g>
</g>
<g>
</g>
<g>
</g>
<g>
</g>
<g>
</g>
<g>
</g>
<g>
</g>
<g>
</g>
<g>
</g>
<g>
</g>
<g>
</g>
</svg>
