<?xml version="1.0" encoding="utf-8"?>
<!-- Svg Vector Icons : http://www.onlinewebfonts.com/icon -->
<!DOCTYPE svg PUBLIC "-//W3C//DTD SVG 1.1//EN" "http://www.w3.org/Graphics/SVG/1.1/DTD/svg11.dtd">
<svg version="1.1" xmlns="http://www.w3.org/2000/svg" xmlns:xlink="http://www.w3.org/1999/xlink" x="0px" y="0px" viewBox="0 0 1000 1000" enable-background="new 0 0 1000 1000" xml:space="preserve">
<metadata> Svg Vector Icons : http://www.onlinewebfonts.com/icon </metadata>
<g><path d="M375.7,129C124.4,132.2,10,272.3,10,401c0,78.3,21.5,120.5,34.7,139l0.1,320.7C45.5,925.8,89,943,111.9,943h528.3c22.9,0,66.5-17.2,67.2-82.6V540.1c13.2-18.5,34.8-60.7,34.8-139.1C742.1,272.3,627.7,132.2,375.7,129z M657.4,507.6l-9.6,7.7v344.8c-0.1,13.4-3.3,22.7-8,23.4H112.3c-4.6-0.7-7.8-10-8-23.1l-0.1-330.9l2.1-12.2l-10.9-8.9C95,508.1,69.5,480.2,69.5,401c0-100.5,96.1-209.9,306.2-212.6c210.9,2.7,306.9,112.1,306.9,212.6C682.6,479.7,657.4,507.7,657.4,507.6z M505.9,79.8c-37.8,0.5-72.4,4.1-104,10.3c89.3,4.4,161.9,25.5,218.8,57.1C754,180.4,815.9,267.4,815.9,348.8c0,80.4-26.2,108.8-26.2,108.8l-8.6,7.9v342.3c-0.1,15.7-5.3,18.2-12.6,21.8l-21.4,7.3v23.4c-0.1,14-1.9,26.4-4.8,37.7l28.1-10.3c24.5-8.7,63.5-16.6,64.1-79.6V486.9c12.8-17.6,34.8-59.2,34.8-138.1C869.3,221.4,755.8,82.9,505.9,79.8z M644.7,57c70.5,17.6,126.3,47.8,168,85.1C898.5,181.7,939,249.4,939,313.6c0,76.7-25,103.9-25,103.9c0,0,0,0,0,0l-8.2,7.6v326.6c-0.2,15-5,17.4-12,20.8l-19.6,6.7v29c-0.1,10.4-1.1,19.9-2.7,28.5l24.2-8.9c23.3-8.3,60.5-15.8,61.2-75.9V445.4C969,428.6,990,388.9,990,313.6C990,192.4,882.1,60.5,644.7,57z"/></g>
</svg>
